<?xml version="1.0" standalone="no"?>
<!DOCTYPE svg PUBLIC "-//W3C//DTD SVG 20010904//EN"
 "http://www.w3.org/TR/2001/REC-SVG-20010904/DTD/svg10.dtd">
<svg version="1.0" xmlns="http://www.w3.org/2000/svg"
 width="248.000000pt" height="149.000000pt" viewBox="0 0 248.000000 149.000000"
 preserveAspectRatio="xMidYMid meet">

<g transform="translate(0.000000,149.000000) scale(0.100000,-0.100000)"
fill="#000000" stroke="none">
<path d="M1240 1433 c0 -15 46 -38 240 -118 l239 -99 20 -46 c70 -162 82 -185
92 -169 6 12 -5 48 -42 131 l-50 114 -232 97 c-291 121 -267 113 -267 90z"/>
<path d="M1013 1263 l-212 -87 -52 -128 -51 -128 -284 0 -284 0 0 -176 c0
-156 2 -175 15 -164 10 8 15 31 15 71 0 33 4 59 10 59 5 0 99 -19 207 -42 194
-42 202 -42 389 -42 l191 1 26 -41 c62 -98 157 -154 246 -143 58 7 152 50 304
138 171 100 204 115 278 128 102 17 261 14 379 -9 58 -11 108 -20 112 -20 5 0
8 22 8 50 0 57 22 48 -190 74 -141 18 -326 21 -335 6 -3 -5 -14 -10 -25 -10
-26 0 -162 -59 -186 -81 -11 -10 -23 -19 -27 -19 -3 0 -45 -25 -91 -55 -99
-64 -173 -99 -233 -110 -39 -6 -48 -3 -90 28 -27 20 -56 48 -65 64 l-17 29
147 43 c180 53 284 105 348 173 44 47 46 52 41 95 -12 107 -169 186 -399 200
-98 6 -155 -9 -216 -56 -39 -30 -79 -102 -88 -159 -5 -34 7 -145 23 -209 l5
-23 -164 0 c-143 0 -185 4 -314 30 -82 16 -177 37 -211 46 l-63 17 0 38 0 39
273 0 272 0 60 139 60 139 208 83 207 83 208 -83 207 -83 55 -136 55 -137 271
-3 c232 -2 273 0 284 13 11 13 -18 15 -263 15 l-275 0 -56 128 -57 128 -208
87 c-115 48 -215 87 -223 87 -7 -1 -108 -40 -225 -87z m337 -212 c6 -10 52
-30 81 -36 25 -5 59 -37 59 -55 -1 -22 -36 -60 -59 -65 -11 -2 -30 -10 -43
-19 -53 -34 -346 -132 -371 -123 -15 5 -37 85 -37 137 0 95 38 163 98 174 44
7 265 -3 272 -13z"/>
<path d="M2412 998 c-9 -9 -12 -79 -12 -255 l0 -243 -292 -2 -292 -3 -49 -115
-48 -116 -234 -97 c-129 -53 -239 -97 -245 -97 -6 0 -116 44 -245 97 l-234 97
-48 116 -49 115 -299 3 c-232 2 -300 -1 -306 -10 -7 -10 53 -14 288 -18 l297
-5 43 -110 43 -111 249 -102 c138 -56 255 -102 261 -102 7 0 121 46 255 102
l244 102 49 111 48 110 297 3 297 2 0 270 c0 149 -1 270 -3 270 -2 0 -8 -5
-15 -12z"/>
<path d="M703 558 c3 -7 26 -65 51 -128 l46 -116 203 -82 c248 -100 237 -96
237 -85 0 5 -94 47 -210 93 l-209 83 -52 124 c-29 67 -56 123 -61 123 -6 0 -8
-6 -5 -12z"/>
</g>
</svg>
