<?xml version="1.0" encoding="utf-8"?>
<!-- Svg Vector Icons : http://www.onlinewebfonts.com/icon -->
<!DOCTYPE svg PUBLIC "-//W3C//DTD SVG 1.1//EN" "http://www.w3.org/Graphics/SVG/1.1/DTD/svg11.dtd">
<svg version="1.1" xmlns="http://www.w3.org/2000/svg" xmlns:xlink="http://www.w3.org/1999/xlink" x="0px" y="0px" viewBox="0 0 1000 1000" enable-background="new 0 0 1000 1000" xml:space="preserve">
<metadata> Svg Vector Icons : http://www.onlinewebfonts.com/icon </metadata>
<g><path d="M710.8,399.3c-27.9,92.4-92.6,154.5-144.5,138.8l232.9,70.3c-51.9-15.8-71.4-103.2-43.5-195.5c27.9-92.1,92.3-154.1,144.1-138.9L667.5,204C719.2,219.8,738.6,307.2,710.8,399.3L710.8,399.3z M129.1,801.7l402.2,121.4c-52-15.7-71.4-103.2-43.5-195.5c27.9-92.3,92.5-154.4,144.5-138.7c0,0-389.3-118.1-391.8-118.8C147.8,442,50,494.4,22.1,587C-4.8,676.2,42.9,769.9,129.1,801.7L129.1,801.7z M124.5,405.1L498.8,518c-51.9-15.7-71.4-103.3-43.5-195.5C483,230.1,547.8,168,599.8,183.7c0,0-361.4-109.6-364-110.4C143.2,45.4,45.5,97.7,17.5,190.4C-9.4,279.5,38.4,373.2,124.5,405.1L124.5,405.1z M559.7,931.7c53,15.9,118.4-46.1,146.4-138.5c27.9-92.4,7.6-180.4-45.4-196.3c-53-16.1-118.5,45.9-146.4,138.4C486.5,827.8,506.7,915.7,559.7,931.7z M642.2,658.5c33.4,10.1,46.2,65.6,28.7,124.1c-17.7,58.4-59.1,97.6-92.6,87.4c-33.4-10-46.2-65.7-28.6-124.1C567.3,687.6,608.7,648.5,642.2,658.5z M532,528.1c52.9,16,118.5-46,146.4-138.4c27.9-92.4,7.6-180.4-45.3-196.3c-52.9-16.1-118.5,45.9-146.4,138.3C458.8,424.2,479.1,512.1,532,528.1z M614.6,254.8C648.1,265,661,320.5,643.3,379c-17.7,58.4-59.1,97.6-92.6,87.5c-33.4-10.1-46.3-65.7-28.6-124.1C539.6,283.9,581.1,244.7,614.6,254.8z M831,618.4c53,15.9,118.6-46.1,146.5-138.5c27.8-92.5,7.6-180.4-45.4-196.4c-53-16-118.6,46-146.4,138.4C757.8,514.4,778.1,602.3,831,618.4z M912.5,348.6c32.4,9.8,44.8,63.5,27.7,119.9c-17.1,56.5-57,94.4-89.5,84.6c-32.4-9.8-44.7-63.5-27.6-120C840.1,376.8,880.1,338.8,912.5,348.6z"/></g>
</svg>